<svg id="logo" xmlns="http://www.w3.org/2000/svg" viewBox="0 0 512 512">
	<path d="M195.01,163.328c10.967-11.252,17.001-25.854,17.001-41.328c0-33.358-28.006-60-61-60c-33.02,0-61,26.676-61,60
		c0,15.475,6.033,30.076,17.001,41.328C79.434,178.566,60.011,207.704,60.011,242v15c0,8.284,6.716,15,15,15h152
		c8.284,0,15-6.716,15-15v-15C242.011,208.299,223.132,178.867,195.01,163.328z M151.011,92c16.804,0,31,13.738,31,30
		c0,16.262-14.196,30-31,30c-16.804,0-31-13.738-31-30C120.011,105.738,134.207,92,151.011,92z M90.011,242
		c0-33.084,27.364-60,61-60c33.636,0,61,26.916,61,60H90.011z"/>
	<path d="M498.831,171.835c-17.545-17.546-46.095-17.546-63.64,0l-13.18,13.18v-78.017c0-3.902-1.489-7.64-4.392-10.605
		c-0.001-0.001-0.001-0.002-0.002-0.002l-89.883-91.88C324.807,1.536,320.86,0,317.011,0h-272c-24.872,0-45,21.096-45,46v421
		c0,24.813,20.187,45,45,45h332c24.813,0,45-20.187,45-45V312.294l34.393-34.393l42.427-42.426
		C516.375,217.93,516.375,189.381,498.831,171.835z M332.011,51.784L371.353,92h-39.342V51.784z M392.011,467
		c0,8.271-6.729,15-15,15h-332c-8.271,0-15-6.729-15-15V46c0-8.523,7.009-16,15-16h257v77c0,8.284,6.716,15,15,15h75v93.016
		L265.485,341.541c-1.044,1.043-2.081,2.441-2.81,3.898L224.395,422h-58.384c-8.284,0-15,6.716-15,15s6.716,15,15,15h61
		c1.149,0,10.385-0.095,13.363-1.583l84.853-42.426c1.472-0.742,2.826-1.741,3.898-2.81l62.886-62.886V467z M302.143,385.991
		l-34.937,17.468l17.469-34.937C292.906,371.241,299.425,377.759,302.143,385.991z M325.875,366.004
		c-5.073-8.805-12.409-16.141-21.213-21.214l98.71-98.708l21.213,21.213L325.875,366.004z M477.617,214.262l-31.82,31.819
		l-21.213-21.213l31.82-31.82c5.849-5.848,15.365-5.848,21.213,0C483.466,198.897,483.466,208.413,477.617,214.262z"/>
	<path d="M347.011,152h-60c-8.284,0-15,6.716-15,15s6.716,15,15,15h60c8.284,0,15-6.716,15-15S355.295,152,347.011,152z"/>
	<path d="M347.011,212h-60c-8.284,0-15,6.716-15,15s6.716,15,15,15h60c8.284,0,15-6.716,15-15S355.295,212,347.011,212z"/>
	<path d="M197.011,302h-122c-8.284,0-15,6.716-15,15s6.716,15,15,15h122c8.284,0,15-6.716,15-15S205.295,302,197.011,302z"/>
	<path d="M197.011,362h-122c-8.284,0-15,6.716-15,15s6.716,15,15,15h122c8.284,0,15-6.716,15-15S205.295,362,197.011,362z"/>
</svg>
